# xmcd CD database file
#
# Track frame offsets:
#	200
#	21642
#	36205
#	53730
#	68852
#	91675
#
# Disc length: 1458 seconds
#
# Revision: 0
# Processed by: cddbd v1.5.2PL0 Copyright (c) Steve Scherf et al.
# Submitted via: CDex 1.51
#
DISCID=4905b006
DTITLE=Various Artist - The Blues and Beyond: Up Close: Point Blank
DYEAR=1991
DGENRE=Blues
TTITLE0=The Kinsey Report - Image Maker
TTITLE1=The Kinsey Report - I'll Be Singin' the Blues
TTITLE2=Larry McCray - One More Lonely Night
TTITLE3=Larry McCray - I Don't Mind
TTITLE4=Albert Collins - Iceman
TTITLE5=Albert Collins - Mr. Collins, Mr. Collins
EXTD=YEAR: 1991
EXTT0=
EXTT1=
EXTT2=
EXTT3=
EXTT4=
EXTT5=
PLAYORDER=
